<svg xmlns="http://www.w3.org/2000/svg" viewBox="0 0 137.057 137.783"><defs><style>.a{fill:#afafaf;}.b{fill:#d8d8d8;}</style></defs><g transform="matrix(0.921, -0.391, 0.391, 0.921, -37.09, 54.817)"><g transform="translate(40.293 0)"><path class="a" d="M46.337,4.034a2.014,2.014,0,0,0-1.426,3.44l5.7,5.7a2.018,2.018,0,0,0,2.851,0,2.015,2.015,0,0,0,0-2.851l-5.7-5.7a2.013,2.013,0,0,0-1.428-.589m5.7,13.762a6.016,6.016,0,0,1-4.277-1.768l-5.7-5.7a6.049,6.049,0,1,1,8.555-8.553l5.7,5.7A6.045,6.045,0,0,1,52.042,17.8" transform="translate(-40.293 0)"/><path class="a" d="M118.745,76.444a2.014,2.014,0,0,0-1.426,3.44l5.7,5.7h0a2.057,2.057,0,0,0,2.849,0,2.013,2.013,0,0,0,0-2.851l-5.7-5.7a2.013,2.013,0,0,0-1.428-.589m5.7,13.766a6,6,0,0,1-4.277-1.772l-5.7-5.7a6.049,6.049,0,1,1,8.555-8.553l5.7,5.7A6.049,6.049,0,0,1,124.45,90.21" transform="translate(-95.591 -55.301)"/><path class="a" d="M101.268,63a2.011,2.011,0,0,1-1.426-.591l-5.7-5.7a2.016,2.016,0,1,1,2.851-2.851l5.7,5.7A2.016,2.016,0,0,1,101.268,63" transform="translate(-80.964 -40.674)"/><path class="a" d="M191.14,148.855a2.015,2.015,0,0,0-1.426,3.44l5.7,5.7h0a2.057,2.057,0,0,0,2.849,0,2.013,2.013,0,0,0,0-2.851l-5.7-5.7a2.015,2.015,0,0,0-1.428-.589m5.7,13.766a6,6,0,0,1-4.277-1.772l-5.7-5.7a6.049,6.049,0,1,1,8.556-8.553l5.7,5.7a6.049,6.049,0,0,1-4.277,10.326" transform="translate(-150.876 -110.602)"/><path class="a" d="M173.674,135.4a2.011,2.011,0,0,1-1.426-.591l-5.7-5.7a2.016,2.016,0,1,1,2.851-2.851l5.7,5.7a2.016,2.016,0,0,1-1.426,3.442" transform="translate(-136.261 -95.973)"/><path class="a" d="M399.929,4.034a2.017,2.017,0,0,0-1.428.589l-5.7,5.7a2.016,2.016,0,1,0,2.851,2.851l5.7-5.7a2.014,2.014,0,0,0-1.426-3.44m-5.7,13.762a6.047,6.047,0,0,1-4.279-10.322l5.7-5.7a6.05,6.05,0,0,1,8.558,8.553l-5.706,5.7a6.026,6.026,0,0,1-4.277,1.768" transform="translate(-305.971 0)"/><path class="a" d="M327.521,76.443a2.017,2.017,0,0,0-1.428.589l-5.7,5.7a2.013,2.013,0,0,0,0,2.849,2.056,2.056,0,0,0,2.851,0h0l5.7-5.7a2.015,2.015,0,0,0-1.426-3.44m-5.7,13.766a6.048,6.048,0,0,1-4.277-10.326l5.7-5.7a6.05,6.05,0,0,1,8.558,8.553l-5.706,5.7a6,6,0,0,1-4.277,1.773" transform="translate(-250.673 -55.3)"/><path class="a" d="M371.055,63a2.016,2.016,0,0,1-1.426-3.442l5.7-5.7a2.016,2.016,0,0,1,2.851,2.851l-5.7,5.7a2.012,2.012,0,0,1-1.426.591" transform="translate(-291.357 -40.674)"/><path class="a" d="M298.647,135.4a2.016,2.016,0,0,1-1.426-3.442l5.7-5.7a2.016,2.016,0,0,1,2.851,2.851l-5.7,5.7a2.012,2.012,0,0,1-1.426.591" transform="translate(-236.058 -95.973)"/><path class="a" d="M251,153.2a43.171,43.171,0,0,1,4.9.8l1.716-1.714a2.017,2.017,0,0,0-2.853-2.851Zm5.527,5.045a2.082,2.082,0,0,1-.5-.06,39.01,39.01,0,0,0-9.261-1.19,2.016,2.016,0,0,1-1.839-2.809,5.968,5.968,0,0,1,1.276-1.9l5.7-5.7a6.049,6.049,0,0,1,8.556,8.553l-2.513,2.513a2.028,2.028,0,0,1-1.426.591Z" transform="translate(-196.454 -110.601)"/><path class="a" d="M328.88,242.755,308.847,190.7c-.738-1.916-3.781-2.924-5.831-3.045H301a63.91,63.91,0,0,0-9.1.284l-.988.988c-.069-.018-.139-.03-.208-.046a40.709,40.709,0,0,1,7.1,2.448l2.15.978a5.234,5.234,0,0,1,3.067,4.765v55.774a5.234,5.234,0,0,1-3.067,4.765l-2.474,1.125a40.11,40.11,0,0,1-7.685,2.571,5.173,5.173,0,0,0,2.264.724l2.712.161a40.211,40.211,0,0,0,31.056-11.953l1.906-1.938a5.235,5.235,0,0,0,1.151-5.549" transform="translate(-230.835 -143.3)"/></g><path class="b" d="M199.323,192.4l-2.147-.976a40.981,40.981,0,0,0-17.3-3.666,4.028,4.028,0,0,1-6.543,4.454l-3.194-3.194a41.012,41.012,0,0,0-6.886,2.405l-2.15.976a5.234,5.234,0,0,0-3.067,4.765v55.776a5.234,5.234,0,0,0,3.067,4.765l2.474,1.123a40.2,40.2,0,0,0,33.279,0l2.472-1.123a5.233,5.233,0,0,0,3.069-4.765V197.168a5.232,5.232,0,0,0-3.069-4.765" transform="translate(-89.917 -143.393)"/><g transform="translate(78.195 62.507)"><path class="a" d="M222.876,268.561H202.712a2.016,2.016,0,1,1,0-4.033h20.164a2.016,2.016,0,1,1,0,4.033" transform="translate(-200.696 -264.528)"/><path class="a" d="M222.876,319.761H202.712a2.016,2.016,0,0,1,0-4.033h20.164a2.016,2.016,0,1,1,0,4.033" transform="translate(-200.696 -303.63)"/><path class="a" d="M222.876,370.961H202.712a2.016,2.016,0,1,1,0-4.033h20.164a2.016,2.016,0,1,1,0,4.033" transform="translate(-200.696 -342.731)"/><path class="a" d="M222.876,422.161H202.712a2.016,2.016,0,1,1,0-4.033h20.164a2.016,2.016,0,1,1,0,4.033" transform="translate(-200.696 -381.833)"/></g><g transform="translate(110.457 82.347)"><path class="b" d="M339.243,355.247a2.017,2.017,0,0,1-.724-3.9l7.092-2.726a2.016,2.016,0,1,1,1.446,3.765l-7.09,2.728a2.028,2.028,0,0,1-.724.133" transform="translate(-337.225 -348.488)"/><path class="b" d="M339.243,404.7a2.017,2.017,0,0,1-.724-3.9l11.435-4.4a2.017,2.017,0,1,1,1.45,3.765l-11.437,4.4a2.025,2.025,0,0,1-.724.133" transform="translate(-337.225 -384.974)"/></g></g></svg>