<svg xmlns="http://www.w3.org/2000/svg" viewBox="0 0 136.381 137.952"><defs><style>.a{fill:#fd9808;}.b{fill:#fcc309;}.c{fill:#ffdd09;}.d{fill:#fff;}.e{fill:#30321c;}</style></defs><g transform="matrix(0.921, -0.391, 0.391, 0.921, -34.693, 54.673)"><path class="a" d="M321.952,238.076l-19.489-50.789c-.787-1.968-3.74-2.953-5.709-2.953h-1.968a65.072,65.072,0,0,0-8.858.2l-.984.984h-.2a40.609,40.609,0,0,1,6.89,2.362l2.165.984a5.049,5.049,0,0,1,2.953,4.724v54.529a5.49,5.49,0,0,1-2.953,4.724l-2.362,1.181a33.588,33.588,0,0,1-7.48,2.559,7.047,7.047,0,0,0,2.165.787l2.559.2A39.575,39.575,0,0,0,319,245.95l1.772-1.968c1.574-1.968,1.968-4.134,1.181-5.905" transform="translate(-188.25 -141.829)"/><path class="b" d="M296.771,238.076l-19.489-50.789c-.787-1.968-3.74-2.953-5.709-2.953H269.6a65.072,65.072,0,0,0-8.858.2l-.984.984h-.2a40.608,40.608,0,0,1,6.89,2.362l2.165.984a5.049,5.049,0,0,1,2.953,4.724v54.529a5.49,5.49,0,0,1-2.953,4.724l-2.362,1.181a33.588,33.588,0,0,1-7.48,2.559,7.047,7.047,0,0,0,2.165.787l2.559.2a39.575,39.575,0,0,0,30.316-11.614l1.772-1.968c1.575-1.968,1.968-4.134,1.181-5.905" transform="translate(-168.975 -141.829)"/><path class="c" d="M190.85,185.034a38.522,38.522,0,0,0-6.693,2.362l-2.165.984a5.049,5.049,0,0,0-2.953,4.724v54.529a5.49,5.49,0,0,0,2.953,4.724l2.362,1.181c10.236,4.724,16.339,4.724,26.575,0l2.362-1.181a5.049,5.049,0,0,0,2.953-4.724V192.908a5.49,5.49,0,0,0-2.953-4.724l-2.165-.984c-5.315-2.362-8.071-3.543-13.78-3.543Z" transform="translate(-107.938 -141.348)"/><path class="d" d="M165.081,257l-2.362-1.181a5.049,5.049,0,0,1-2.953-4.724V196.763a5.49,5.49,0,0,1,2.953-4.724l2.165-.984a23.1,23.1,0,0,0,2.165-.984l-1.378-1.378a38.525,38.525,0,0,0-6.693,2.362l-2.165.984a5.049,5.049,0,0,0-2.953,4.724v54.529a5.49,5.49,0,0,0,2.953,4.724l2.362,1.181a38.243,38.243,0,0,0,19.292,3.347A53.831,53.831,0,0,1,165.081,257" transform="translate(-88.664 -145.203)"/><g transform="translate(40.392 -1)"><path class="c" d="M59.52,16.52a5.666,5.666,0,0,1-4.134-1.772L49.874,9.237A6.107,6.107,0,0,1,48.1,4.906,5.361,5.361,0,0,1,49.874.772a5.708,5.708,0,0,1,8.268,0l5.512,5.512a5.708,5.708,0,0,1,0,8.268A4.945,4.945,0,0,1,59.52,16.52ZM54.008,2.937a1.786,1.786,0,0,0-1.378.591,2.126,2.126,0,0,0-.591,1.378,1.786,1.786,0,0,0,.591,1.378L58.142,11.8A1.949,1.949,0,1,0,60.9,9.04L55.385,3.528A1.786,1.786,0,0,0,54.008,2.937Z" transform="translate(-48.102 1)"/><path class="c" d="M130.864,87.668A5.666,5.666,0,0,1,126.73,85.9h0l-5.512-5.512a5.666,5.666,0,0,1-1.772-4.134,5.361,5.361,0,0,1,1.772-4.134,5.708,5.708,0,0,1,8.268,0L135,77.629a5.708,5.708,0,0,1,0,8.268A4.779,4.779,0,0,1,130.864,87.668Zm-1.378-4.331a1.949,1.949,0,0,0,2.756-2.756l-5.512-5.512a1.9,1.9,0,0,0-2.756,0,1.9,1.9,0,0,0,0,2.756Z" transform="translate(-102.713 -53.612)"/><path class="c" d="M107.818,61.327a1.786,1.786,0,0,1-1.378-.591l-5.709-5.512a1.949,1.949,0,0,1,2.756-2.756L109,57.981a1.9,1.9,0,0,1,0,2.756A1.4,1.4,0,0,1,107.818,61.327Z" transform="translate(-87.936 -39.476)"/><path class="c" d="M202.208,159.494a5.666,5.666,0,0,1-4.134-1.772h0l-5.512-5.512a5.708,5.708,0,0,1,0-8.268,6.073,6.073,0,0,1,8.268,0l5.512,5.512a5.906,5.906,0,0,1-4.134,10.04Zm-1.378-4.528a1.949,1.949,0,1,0,2.756-2.756l-5.512-5.512a1.949,1.949,0,0,0-2.756,2.756Z" transform="translate(-157.325 -108.705)"/><path class="c" d="M179.806,132.671a1.786,1.786,0,0,1-1.378-.591l-5.512-5.512a1.949,1.949,0,1,1,2.756-2.756l5.512,5.512a1.9,1.9,0,0,1,0,2.756A2.128,2.128,0,0,1,179.806,132.671Z" transform="translate(-143.191 -94.088)"/><path class="c" d="M396.46,17.162a5.666,5.666,0,0,1-4.134-1.772,5.708,5.708,0,0,1,0-8.268l5.512-5.512a5.708,5.708,0,0,1,8.268,0,5.708,5.708,0,0,1,0,8.268l-5.512,5.512h0A6,6,0,0,1,396.46,17.162Zm2.756-3.15Zm2.756-10.433a1.786,1.786,0,0,0-1.378.591l-5.512,5.512a1.949,1.949,0,0,0,2.756,2.756l5.512-5.512a1.9,1.9,0,0,0,0-2.756A1.787,1.787,0,0,0,401.972,3.579Z" transform="translate(-310.237 0.358)"/><path class="c" d="M325.116,87.668a5.906,5.906,0,0,1-4.134-10.04l5.512-5.512a5.906,5.906,0,0,1,10.039,4.134,5.361,5.361,0,0,1-1.772,4.134L329.249,85.9h0A5.006,5.006,0,0,1,325.116,87.668Zm2.756-2.953Zm2.756-10.433a1.786,1.786,0,0,0-1.378.591l-5.512,5.512a1.949,1.949,0,0,0,2.756,2.756l5.512-5.512a1.969,1.969,0,0,0-1.378-3.347Z" transform="translate(-255.626 -53.612)"/><path class="c" d="M373.219,61.327a1.787,1.787,0,0,1-1.378-.591,1.9,1.9,0,0,1,0-2.756l5.512-5.512a1.949,1.949,0,0,1,2.756,2.756L374.6,60.737A1.788,1.788,0,0,1,373.219,61.327Z" transform="translate(-295.461 -39.476)"/><path class="c" d="M301.874,132.671a1.786,1.786,0,0,1-1.378-.591,1.9,1.9,0,0,1,0-2.756l5.512-5.512a1.949,1.949,0,0,1,2.756,2.756l-5.512,5.512A1.533,1.533,0,0,1,301.874,132.671Z" transform="translate(-240.849 -94.088)"/><path class="c" d="M261.181,156h-.394a34.63,34.63,0,0,0-9.055-1.181,2.008,2.008,0,0,1-1.575-.984,1.913,1.913,0,0,1-.2-1.772,6.873,6.873,0,0,1,1.181-1.772l5.512-5.512a6.073,6.073,0,0,1,8.268,0,5.666,5.666,0,0,1,1.772,4.134,5.361,5.361,0,0,1-1.772,4.134l-2.362,2.362A1.787,1.787,0,0,1,261.181,156Zm-5.315-4.921a39.424,39.424,0,0,1,4.724.787l1.772-1.772a1.9,1.9,0,0,0,0-2.756,1.9,1.9,0,0,0-2.756,0Z" transform="translate(-202.519 -109.347)"/></g><path class="e" d="M49.447,17.163a6,6,0,0,1-4.134-1.772L39.8,9.88a5.708,5.708,0,0,1,0-8.268,5.708,5.708,0,0,1,8.268,0l5.512,5.512a5.708,5.708,0,0,1,0,8.268A5.362,5.362,0,0,1,49.447,17.163ZM43.936,3.58a1.786,1.786,0,0,0-1.378.591,1.9,1.9,0,0,0,0,2.756l5.512,5.512a1.949,1.949,0,1,0,2.756-2.756L45.313,4.171A1.786,1.786,0,0,0,43.936,3.58Z" transform="translate(0 -0.643)"/><path class="e" d="M120.792,87.668a5.666,5.666,0,0,1-4.134-1.772l-5.512-5.512a5.846,5.846,0,0,1,8.268-8.268l5.512,5.512a5.708,5.708,0,0,1,0,8.268A4.779,4.779,0,0,1,120.792,87.668ZM115.28,74.282a1.786,1.786,0,0,0-1.378.591,1.9,1.9,0,0,0,0,2.756l5.512,5.512a1.949,1.949,0,1,0,2.756-2.756l-5.512-5.512A2.126,2.126,0,0,0,115.28,74.282Z" transform="translate(-54.611 -54.612)"/><path class="e" d="M97.746,61.328a1.786,1.786,0,0,1-1.378-.591L90.66,55.225a1.949,1.949,0,0,1,2.756-2.756l5.709,5.512a1.9,1.9,0,0,1,0,2.756A2.127,2.127,0,0,1,97.746,61.328Z" transform="translate(-39.834 -40.477)"/><path class="e" d="M192.136,159.012A5.361,5.361,0,0,1,188,157.241l-5.512-5.512a5.846,5.846,0,0,1,8.268-8.268l5.512,5.512a5.666,5.666,0,0,1,1.772,4.134,6.055,6.055,0,0,1-5.906,5.906Zm-5.512-13.386a1.786,1.786,0,0,0-1.378.591,1.9,1.9,0,0,0,0,2.756l5.512,5.512a1.9,1.9,0,0,0,2.756,0,1.9,1.9,0,0,0,0-2.756L188,146.217A2.127,2.127,0,0,0,186.624,145.626Z" transform="translate(-109.223 -109.223)"/><path class="e" d="M169.734,132.671a1.786,1.786,0,0,1-1.378-.591l-5.512-5.512a1.949,1.949,0,1,1,2.756-2.756l5.512,5.512a1.9,1.9,0,0,1,0,2.756A2.127,2.127,0,0,1,169.734,132.671Z" transform="translate(-95.089 -95.088)"/><path class="e" d="M169.089,252.233a40.12,40.12,0,0,1-17.126-3.74l-2.362-1.181a7.141,7.141,0,0,1-4.134-6.5V186.484a7.141,7.141,0,0,1,4.134-6.5l2.165-.984a59.332,59.332,0,0,1,7.087-2.559,2,2,0,0,1,1.968.591l3.15,3.15a1.9,1.9,0,0,0,2.756,0,1.8,1.8,0,0,0,.394-2.165,1.85,1.85,0,0,1,.2-1.772,2.008,2.008,0,0,1,1.575-.984A42.111,42.111,0,0,1,186.609,179l2.165.984a7.141,7.141,0,0,1,4.134,6.5v54.529a7.141,7.141,0,0,1-4.134,6.5l-2.362,1.181A48.634,48.634,0,0,1,169.089,252.233Zm-10.433-71.459c-1.772.591-3.543,1.181-5.315,1.968l-2.165.984a3.053,3.053,0,0,0-1.772,2.953v54.529a3.659,3.659,0,0,0,1.772,2.953l2.362,1.181a36.859,36.859,0,0,0,30.906,0l2.362-1.181a3.053,3.053,0,0,0,1.772-2.953V186.484a3.659,3.659,0,0,0-1.772-2.953l-1.968-.787a37.279,37.279,0,0,0-13.78-3.347,5.594,5.594,0,0,1-1.772,3.74,5.708,5.708,0,0,1-8.268,0Z" transform="translate(-82.239 -134.923)"/><path class="e" d="M217.481,263.135H197.8a1.968,1.968,0,1,1,0-3.937h19.685a1.968,1.968,0,0,1,0,3.937Z" transform="translate(-120.788 -199.172)"/><path class="e" d="M217.481,313.495H197.8a1.968,1.968,0,1,1,0-3.937h19.685a1.968,1.968,0,1,1,0,3.937Z" transform="translate(-120.788 -237.721)"/><path class="e" d="M217.481,363.856H197.8a1.968,1.968,0,1,1,0-3.937h19.685a1.968,1.968,0,1,1,0,3.937Z" transform="translate(-120.788 -276.271)"/><path class="e" d="M217.481,414.217H197.8a1.968,1.968,0,1,1,0-3.937h19.685a1.968,1.968,0,0,1,0,3.937Z" transform="translate(-120.788 -314.82)"/><path class="e" d="M332.33,348.385a1.722,1.722,0,0,1-1.772-1.181,2.047,2.047,0,0,1,1.181-2.559l6.89-2.756a1.993,1.993,0,1,1,1.378,3.74l-6.89,2.756Z" transform="translate(-223.826 -262.375)"/><path class="e" d="M332.33,397.8a1.722,1.722,0,0,1-1.772-1.181,2.047,2.047,0,0,1,1.181-2.559l11.221-4.331a1.993,1.993,0,0,1,1.378,3.74L333.117,397.8C332.724,397.606,332.527,397.8,332.33,397.8Z" transform="translate(-223.826 -298.998)"/><path class="e" d="M386.388,17.163a5.665,5.665,0,0,1-4.134-1.772,5.708,5.708,0,0,1,0-8.268l5.512-5.512a5.708,5.708,0,0,1,8.268,0,5.665,5.665,0,0,1,1.772,4.134,5.361,5.361,0,0,1-1.772,4.134l-5.512,5.512h0A6,6,0,0,1,386.388,17.163Zm2.756-3.15ZM391.9,3.58a1.786,1.786,0,0,0-1.378.591L385.01,9.683a1.949,1.949,0,1,0,2.756,2.756l5.512-5.512a1.787,1.787,0,0,0,.591-1.378,1.786,1.786,0,0,0-.591-1.378A1.787,1.787,0,0,0,391.9,3.58Z" transform="translate(-262.135 -0.643)"/><path class="e" d="M315.044,87.668a5.906,5.906,0,0,1-4.134-10.04l5.512-5.512a5.906,5.906,0,0,1,10.039,4.134,5.361,5.361,0,0,1-1.772,4.134L319.177,85.9h0A5.006,5.006,0,0,1,315.044,87.668Zm2.756-2.953Zm2.756-10.433a1.786,1.786,0,0,0-1.378.591l-5.512,5.512a1.949,1.949,0,0,0,2.756,2.756l5.512-5.512a1.969,1.969,0,0,0-1.378-3.347Z" transform="translate(-207.524 -54.612)"/><path class="e" d="M363.146,61.327a1.786,1.786,0,0,1-1.378-.591,1.9,1.9,0,0,1,0-2.756l5.512-5.512a1.949,1.949,0,0,1,2.756,2.756l-5.512,5.512A1.787,1.787,0,0,1,363.146,61.327Z" transform="translate(-247.358 -40.476)"/><path class="e" d="M291.8,132.671a1.786,1.786,0,0,1-1.378-.591,1.9,1.9,0,0,1,0-2.756l5.512-5.512a1.949,1.949,0,0,1,2.756,2.756l-5.315,5.512A2.236,2.236,0,0,1,291.8,132.671Z" transform="translate(-192.747 -95.088)"/><path class="e" d="M251.109,156h-.394a34.63,34.63,0,0,0-9.055-1.181,2.008,2.008,0,0,1-1.575-.984,1.913,1.913,0,0,1-.2-1.772,6.873,6.873,0,0,1,1.181-1.772l5.512-5.512a6.073,6.073,0,0,1,8.268,0,5.708,5.708,0,0,1,0,8.268l-2.362,2.362A1.787,1.787,0,0,1,251.109,156Zm-5.315-4.921a39.424,39.424,0,0,1,4.724.787l1.772-1.772a1.949,1.949,0,0,0-2.756-2.756Z" transform="translate(-154.417 -110.347)"/><path class="e" d="M284.456,252.037h-2.362l-2.559-.2a7.236,7.236,0,0,1-3.15-.984,1.726,1.726,0,0,1-.984-1.968,2.137,2.137,0,0,1,1.575-1.575,37.411,37.411,0,0,0,7.087-2.362l2.362-1.181a3.053,3.053,0,0,0,1.772-2.953V186.484a3.659,3.659,0,0,0-1.772-2.953l-2.165-.787a36.5,36.5,0,0,0-6.5-2.362,1.868,1.868,0,0,1-1.378-2.362,2.081,2.081,0,0,1,1.181-1.378l.394-.394a1.7,1.7,0,0,1,1.181-.591,42.782,42.782,0,0,1,7.087-.394h3.937c2.165.2,6.3,1.181,7.48,4.331l19.685,50.789h0a7.033,7.033,0,0,1-1.575,7.48l-1.772,1.968A41.718,41.718,0,0,1,284.456,252.037Zm1.772-72.837,1.772.787a7.141,7.141,0,0,1,4.134,6.5v54.529a7.141,7.141,0,0,1-4.134,6.5l-1.575.591a36.536,36.536,0,0,0,24.607-11.024l1.772-1.968a3.408,3.408,0,0,0,.787-3.347L294.1,180.971c-.2-.787-2.165-1.575-3.937-1.772h-3.937Z" transform="translate(-181.661 -134.923)"/></g></svg>