<svg width="136" height="43" viewBox="0 0 136 43" fill="none" xmlns="http://www.w3.org/2000/svg">
<path d="M6.34204 1.17993H11.578C14.614 1.17993 16.132 2.8666 16.132 6.23993C16.132 9.4666 14.5407 11.0799 11.358 11.0799H9.57604V18.9999H6.34204V1.17993ZM10.83 8.79193C11.71 8.79193 12.304 8.6086 12.612 8.24193C12.92 7.8606 13.074 7.18593 13.074 6.21793C13.074 5.51393 13.0227 4.9786 12.92 4.61193C12.8174 4.2306 12.6047 3.9446 12.282 3.75393C11.974 3.56327 11.49 3.46793 10.83 3.46793H9.57604V8.79193H10.83Z" fill="white"/>
<path d="M20.4296 12.2019L16.8216 1.17993H19.8576L22.0576 8.24193L24.1256 1.17993H27.0956L23.5316 12.2019V18.9999H20.4296V12.2019Z" fill="white"/>
<path d="M28.6643 1.17993H32.9543C34.8316 1.17993 36.2323 1.53927 37.1563 2.25793C38.0803 2.96193 38.5423 4.17927 38.5423 5.90993C38.5423 7.03927 38.3736 7.96327 38.0363 8.68194C37.7136 9.38594 37.149 9.89927 36.3423 10.2219L38.8283 18.9999H35.5723L33.4383 10.8379H31.8983V18.9999H28.6643V1.17993ZM32.9323 8.81393C33.8563 8.81393 34.509 8.60127 34.8903 8.17593C35.2863 7.7506 35.4843 7.05393 35.4843 6.08593C35.4843 5.14727 35.3083 4.46527 34.9563 4.03994C34.619 3.6146 34.003 3.40193 33.1083 3.40193H31.8983V8.81393H32.9323Z" fill="white"/>
<path d="M45.7724 19.2419C43.9244 19.2419 42.6044 18.7506 41.8124 17.7679C41.0204 16.7706 40.6244 15.3186 40.6244 13.4119V6.72393C40.6244 4.83193 41.0204 3.40193 41.8124 2.43394C42.6044 1.46593 43.9244 0.981934 45.7724 0.981934C47.6057 0.981934 48.9184 1.46593 49.7104 2.43394C50.5024 3.40193 50.8984 4.83193 50.8984 6.72393V13.4119C50.8984 15.3039 50.4951 16.7486 49.6884 17.7459C48.8964 18.7433 47.5911 19.2419 45.7724 19.2419ZM45.7724 16.8439C46.4911 16.8439 46.9751 16.6166 47.2244 16.1619C47.4737 15.7073 47.5984 15.0473 47.5984 14.1819V5.97593C47.5984 5.1106 47.4737 4.45793 47.2244 4.01793C46.9897 3.57793 46.5057 3.35793 45.7724 3.35793C45.0391 3.35793 44.5477 3.58527 44.2984 4.03994C44.0491 4.47993 43.9244 5.12527 43.9244 5.97593V14.1819C43.9244 15.0473 44.0491 15.7073 44.2984 16.1619C44.5477 16.6166 45.0391 16.8439 45.7724 16.8439Z" fill="white"/>
<path d="M53.2189 10.7719H58.5209V12.8179H53.2189V10.7719Z" fill="white"/>
<path d="M65.6152 19.2419C64.0019 19.2419 62.7919 18.7873 61.9852 17.8779C61.1932 16.9686 60.7605 15.6119 60.6872 13.8079L63.4812 13.2579C63.5252 14.3873 63.7012 15.2526 64.0092 15.8539C64.3319 16.4406 64.8305 16.7339 65.5052 16.7339C66.0039 16.7339 66.3705 16.5873 66.6052 16.2939C66.8545 15.9859 66.9792 15.5753 66.9792 15.0619C66.9792 14.3579 66.8179 13.7639 66.4952 13.2799C66.1872 12.7813 65.6959 12.2386 65.0212 11.6519L62.7772 9.69394C62.0879 9.10727 61.5672 8.4766 61.2152 7.80194C60.8779 7.12727 60.7092 6.3206 60.7092 5.38194C60.7092 3.9886 61.1125 2.9106 61.9192 2.14793C62.7405 1.3706 63.8699 0.981934 65.3072 0.981934C66.8472 0.981934 67.9472 1.42193 68.6072 2.30193C69.2819 3.16727 69.6705 4.3406 69.7732 5.82193L66.9792 6.30593C66.9352 5.33794 66.7959 4.61193 66.5612 4.12793C66.3412 3.62927 65.9012 3.37993 65.2412 3.37993C64.7719 3.37993 64.4052 3.54127 64.1412 3.86393C63.8772 4.17193 63.7452 4.56793 63.7452 5.05194C63.7452 5.62393 63.8552 6.10793 64.0752 6.50393C64.3099 6.88527 64.6839 7.29593 65.1972 7.73593L67.4192 9.69394C68.2552 10.4126 68.9079 11.1826 69.3772 12.0039C69.8465 12.8253 70.0812 13.7786 70.0812 14.8639C70.0812 15.7146 69.8905 16.4699 69.5092 17.1299C69.1425 17.7899 68.6219 18.3106 67.9472 18.6919C67.2725 19.0586 66.4952 19.2419 65.6152 19.2419Z" fill="white"/>
<path d="M72.0423 1.17993H75.2763V8.61593H78.9063V1.17993H82.1623V18.9999H78.9063V10.9479H75.2763V18.9999H72.0423V1.17993Z" fill="white"/>
<path d="M89.7509 19.2419C87.9029 19.2419 86.5829 18.7506 85.7909 17.7679C84.9989 16.7706 84.6029 15.3186 84.6029 13.4119V6.72393C84.6029 4.83193 84.9989 3.40193 85.7909 2.43394C86.5829 1.46593 87.9029 0.981934 89.7509 0.981934C91.5842 0.981934 92.8969 1.46593 93.6889 2.43394C94.4809 3.40193 94.8769 4.83193 94.8769 6.72393V13.4119C94.8769 15.3039 94.4736 16.7486 93.6669 17.7459C92.8749 18.7433 91.5696 19.2419 89.7509 19.2419ZM89.7509 16.8439C90.4696 16.8439 90.9536 16.6166 91.2029 16.1619C91.4522 15.7073 91.5769 15.0473 91.5769 14.1819V5.97593C91.5769 5.1106 91.4522 4.45793 91.2029 4.01793C90.9682 3.57793 90.4842 3.35793 89.7509 3.35793C89.0176 3.35793 88.5262 3.58527 88.2769 4.03994C88.0276 4.47993 87.9029 5.12527 87.9029 5.97593V14.1819C87.9029 15.0473 88.0276 15.7073 88.2769 16.1619C88.5262 16.6166 89.0176 16.8439 89.7509 16.8439Z" fill="white"/>
<path d="M97.2854 1.17993H102.521C105.557 1.17993 107.075 2.8666 107.075 6.23993C107.075 9.4666 105.484 11.0799 102.301 11.0799H100.519V18.9999H97.2854V1.17993ZM101.773 8.79193C102.653 8.79193 103.247 8.6086 103.555 8.24193C103.863 7.8606 104.017 7.18593 104.017 6.21793C104.017 5.51393 103.966 4.9786 103.863 4.61193C103.761 4.2306 103.548 3.9446 103.225 3.75393C102.917 3.56327 102.433 3.46793 101.773 3.46793H100.519V8.79193H101.773Z" fill="white"/>
<path d="M106.817 15.9859H109.721V18.9999H106.817V15.9859Z" fill="white"/>
<path d="M116.691 19.2419C114.843 19.2419 113.53 18.7286 112.753 17.7019C111.99 16.6606 111.609 15.1939 111.609 13.3019V6.94393C111.609 4.99327 111.99 3.51193 112.753 2.49993C113.515 1.48793 114.828 0.981934 116.691 0.981934C118.436 0.981934 119.675 1.42193 120.409 2.30193C121.142 3.18193 121.509 4.4506 121.509 6.10793V7.60394H118.385V6.06394C118.385 5.43327 118.355 4.94193 118.297 4.58993C118.238 4.22327 118.084 3.92993 117.835 3.70993C117.6 3.47527 117.226 3.35793 116.713 3.35793C116.185 3.35793 115.789 3.4826 115.525 3.73194C115.261 3.9666 115.085 4.28927 114.997 4.69993C114.923 5.09593 114.887 5.6166 114.887 6.26193V13.9839C114.887 14.9959 115.019 15.7293 115.283 16.1839C115.547 16.6239 116.023 16.8439 116.713 16.8439C117.211 16.8439 117.578 16.7266 117.813 16.4919C118.062 16.2573 118.216 15.9493 118.275 15.5679C118.348 15.1719 118.385 14.6513 118.385 14.0059V12.3999H121.509V13.8299C121.509 15.5459 121.149 16.8806 120.431 17.8339C119.712 18.7726 118.465 19.2419 116.691 19.2419Z" fill="white"/>
<path d="M123.182 16.9099L127.956 3.42393H123.424V1.17993H131.234V2.85193L126.262 16.7779H131.256V18.9999H123.182V16.9099Z" fill="white"/>
<path d="M0.393555 40V38.8955L5.30029 32.0718H0.564941V30.7007H7.33154V31.9512L2.51367 38.6289H7.36328L7.35693 40H0.393555Z" fill="white"/>
<path d="M10.6577 32.0781L11.7432 29.647H13.6411L11.6416 32.0781H10.6577ZM10.3657 40.1333C9.71826 40.1333 9.19352 39.9556 8.7915 39.6001C8.39372 39.2404 8.19482 38.7241 8.19482 38.0513C8.19482 37.3276 8.4318 36.7923 8.90576 36.4453C9.37972 36.0941 10.0949 35.8719 11.0513 35.7788C11.1825 35.7619 11.3242 35.745 11.4766 35.728C11.6289 35.7111 11.8003 35.6942 11.9907 35.6772C12.1812 35.6603 12.3314 35.6455 12.4414 35.6328V35.2646C12.4414 34.8415 12.3441 34.5347 12.1494 34.3442C11.9548 34.1496 11.6585 34.0522 11.2607 34.0522C10.6937 34.0522 9.99333 34.2109 9.15967 34.5283C9.15544 34.5156 9.08561 34.3231 8.9502 33.9507C8.81478 33.5783 8.74495 33.3879 8.74072 33.3794C9.56169 33.0282 10.4504 32.8525 11.4067 32.8525C12.3462 32.8525 13.0296 33.0578 13.457 33.4683C13.8844 33.8745 14.0981 34.5347 14.0981 35.4487V40H12.8667C12.8625 39.9831 12.8159 39.8413 12.7271 39.5747C12.6382 39.3081 12.5938 39.1663 12.5938 39.1494C12.2467 39.488 11.9061 39.7376 11.5718 39.8984C11.2417 40.055 10.8397 40.1333 10.3657 40.1333ZM10.8164 38.9526C11.2015 38.9526 11.5358 38.8617 11.8193 38.6797C12.1071 38.4935 12.3123 38.2692 12.4351 38.0068V36.6611C12.4224 36.6611 12.3102 36.6696 12.0986 36.6865C11.8913 36.7035 11.7791 36.7119 11.7622 36.7119C11.0894 36.7712 10.5964 36.8981 10.2832 37.0928C9.97005 37.2874 9.81348 37.6006 9.81348 38.0322C9.81348 38.3285 9.90023 38.557 10.0737 38.7178C10.2472 38.8743 10.4948 38.9526 10.8164 38.9526Z" fill="white"/>
<path d="M19.5127 40.1333C19.0387 40.1333 18.6071 40.0296 18.2178 39.8223C17.8327 39.6107 17.5534 39.3716 17.3799 39.105L17.2148 39.9937H15.7739V30.4531L17.437 30.3452V32.5034C17.437 32.9224 17.4243 33.3984 17.3989 33.9316C17.9491 33.2122 18.6663 32.8525 19.5508 32.8525C20.4395 32.8525 21.1356 33.1826 21.6392 33.8428C22.147 34.5029 22.4009 35.3662 22.4009 36.4326C22.4009 37.5413 22.1385 38.4364 21.6138 39.1177C21.0933 39.7948 20.3929 40.1333 19.5127 40.1333ZM19.1128 38.8701C19.6079 38.8701 20.0036 38.6606 20.2998 38.2417C20.596 37.8228 20.7441 37.2282 20.7441 36.458C20.7441 35.6836 20.5981 35.0975 20.3062 34.6997C20.0184 34.3019 19.627 34.103 19.1318 34.103C18.0062 34.103 17.437 34.8626 17.4243 36.3818C17.4243 37.2367 17.5661 37.8651 17.8496 38.2671C18.1331 38.6691 18.5542 38.8701 19.1128 38.8701Z" fill="white"/>
<path d="M25.5747 40.1333C24.9272 40.1333 24.4025 39.9556 24.0005 39.6001C23.6027 39.2404 23.4038 38.7241 23.4038 38.0513C23.4038 37.3276 23.6408 36.7923 24.1147 36.4453C24.5887 36.0941 25.3039 35.8719 26.2603 35.7788C26.3914 35.7619 26.5332 35.745 26.6855 35.728C26.8379 35.7111 27.0093 35.6942 27.1997 35.6772C27.3901 35.6603 27.5404 35.6455 27.6504 35.6328V35.2646C27.6504 34.8415 27.5531 34.5347 27.3584 34.3442C27.1637 34.1496 26.8675 34.0522 26.4697 34.0522C25.9027 34.0522 25.2023 34.2109 24.3687 34.5283C24.3644 34.5156 24.2946 34.3231 24.1592 33.9507C24.0238 33.5783 23.9539 33.3879 23.9497 33.3794C24.7707 33.0282 25.6593 32.8525 26.6157 32.8525C27.5552 32.8525 28.2386 33.0578 28.666 33.4683C29.0934 33.8745 29.3071 34.5347 29.3071 35.4487V40H28.0757C28.0715 39.9831 28.0249 39.8413 27.936 39.5747C27.8472 39.3081 27.8027 39.1663 27.8027 39.1494C27.4557 39.488 27.1151 39.7376 26.7808 39.8984C26.4507 40.055 26.0487 40.1333 25.5747 40.1333ZM26.0254 38.9526C26.4105 38.9526 26.7448 38.8617 27.0283 38.6797C27.3161 38.4935 27.5213 38.2692 27.644 38.0068V36.6611C27.6313 36.6611 27.5192 36.6696 27.3076 36.6865C27.1003 36.7035 26.9881 36.7119 26.9712 36.7119C26.2983 36.7712 25.8053 36.8981 25.4922 37.0928C25.179 37.2874 25.0225 37.6006 25.0225 38.0322C25.0225 38.3285 25.1092 38.557 25.2827 38.7178C25.4562 38.8743 25.7038 38.9526 26.0254 38.9526Z" fill="white"/>
<path d="M32.8618 40L30.0815 33.0239H31.8462C31.9139 33.2144 32.1276 33.8068 32.4873 34.8013C32.8512 35.7915 33.0924 36.4665 33.2109 36.8262C33.4521 37.5286 33.6257 38.0597 33.7314 38.4194C33.7314 38.4152 33.7674 38.2777 33.8394 38.0068C33.9113 37.736 33.979 37.4821 34.0425 37.2451C34.1102 37.0039 34.1525 36.8579 34.1694 36.8071C34.1737 36.7987 34.3662 36.2147 34.7471 35.0552C35.1322 33.8957 35.3607 33.2186 35.4326 33.0239H37.1846L34.5439 40H32.8618Z" fill="white"/>
<path d="M38.0542 40V33.0239H39.3936L39.5776 33.9062C40.2886 33.2038 41.0778 32.8525 41.9453 32.8525C42.7578 32.8525 43.3651 33.0874 43.7671 33.5571C44.1733 34.0226 44.3765 34.6997 44.3765 35.5884V40H42.707V35.7915C42.7028 35.2287 42.6118 34.8076 42.4341 34.5283C42.2563 34.249 41.9368 34.1094 41.4756 34.1094C41.1159 34.1094 40.7858 34.2025 40.4854 34.3887C40.1891 34.5706 39.9733 34.8013 39.8379 35.0806C39.7575 35.4106 39.7173 35.9185 39.7173 36.604V40H38.0542Z" fill="white"/>
<path d="M48.147 32.0781L49.2324 29.647H51.1304L49.1309 32.0781H48.147ZM47.855 40.1333C47.2075 40.1333 46.6828 39.9556 46.2808 39.6001C45.883 39.2404 45.6841 38.7241 45.6841 38.0513C45.6841 37.3276 45.9211 36.7923 46.395 36.4453C46.869 36.0941 47.5841 35.8719 48.5405 35.7788C48.6717 35.7619 48.8135 35.745 48.9658 35.728C49.1182 35.7111 49.2896 35.6942 49.48 35.6772C49.6704 35.6603 49.8206 35.6455 49.9307 35.6328V35.2646C49.9307 34.8415 49.8333 34.5347 49.6387 34.3442C49.444 34.1496 49.1478 34.0522 48.75 34.0522C48.1829 34.0522 47.4826 34.2109 46.6489 34.5283C46.6447 34.5156 46.5749 34.3231 46.4395 33.9507C46.304 33.5783 46.2342 33.3879 46.23 33.3794C47.0509 33.0282 47.9396 32.8525 48.896 32.8525C49.8354 32.8525 50.5189 33.0578 50.9463 33.4683C51.3737 33.8745 51.5874 34.5347 51.5874 35.4487V40H50.356C50.3517 39.9831 50.3052 39.8413 50.2163 39.5747C50.1274 39.3081 50.083 39.1663 50.083 39.1494C49.736 39.488 49.3953 39.7376 49.061 39.8984C48.731 40.055 48.3289 40.1333 47.855 40.1333ZM48.3057 38.9526C48.6908 38.9526 49.0251 38.8617 49.3086 38.6797C49.5964 38.4935 49.8016 38.2692 49.9243 38.0068V36.6611C49.9116 36.6611 49.7995 36.6696 49.5879 36.6865C49.3805 36.7035 49.2684 36.7119 49.2515 36.7119C48.5786 36.7712 48.0856 36.8981 47.7725 37.0928C47.4593 37.2874 47.3027 37.6006 47.3027 38.0322C47.3027 38.3285 47.3895 38.557 47.563 38.7178C47.7365 38.8743 47.984 38.9526 48.3057 38.9526Z" fill="white"/>
<path d="M56.7036 42.9009V33.0239H58.1318L58.3096 34.0015C58.5381 33.6333 58.8407 33.3498 59.2173 33.1509C59.5981 32.9478 60.0213 32.8462 60.4868 32.8462C61.0581 32.8462 61.5596 33.0049 61.9912 33.3223C62.4271 33.6396 62.7572 34.0734 62.9814 34.6235C63.2057 35.1694 63.3179 35.7873 63.3179 36.4771C63.3179 37.5562 63.0555 38.4364 62.5308 39.1177C62.0103 39.7948 61.3035 40.1333 60.4106 40.1333C59.9705 40.1333 59.5706 40.0465 59.2109 39.873C58.8555 39.6953 58.5571 39.4562 58.3159 39.1558C58.3498 39.7651 58.3667 40.1079 58.3667 40.1841V42.8184L56.7036 42.9009ZM60.0552 38.8638C60.5503 38.8638 60.9396 38.6564 61.2231 38.2417C61.5109 37.827 61.6548 37.2345 61.6548 36.4644C61.6548 35.6815 61.5109 35.0933 61.2231 34.6997C60.9354 34.3062 60.5355 34.1094 60.0234 34.1094C58.9232 34.1094 58.3667 34.8584 58.354 36.3564C58.354 37.2197 58.4958 37.8545 58.7793 38.2607C59.0671 38.6628 59.4924 38.8638 60.0552 38.8638Z" fill="white"/>
<path d="M65.0063 42.939C64.7355 42.939 64.4478 42.922 64.1431 42.8882L64.0605 41.5996C64.2552 41.6208 64.5028 41.6313 64.8032 41.6313C65.1883 41.6313 65.4972 41.5552 65.73 41.4028C65.9627 41.2505 66.1553 40.9797 66.3076 40.5903C66.3245 40.548 66.4092 40.3089 66.5615 39.873L63.7559 33.0239H65.5332L67.3677 38.083C67.5031 37.5794 67.8057 36.6442 68.2754 35.2773C68.7493 33.9105 69.0096 33.1593 69.0562 33.0239H70.8335C68.8996 38.1359 67.9242 40.7131 67.9072 40.7554C67.6068 41.5382 67.228 42.0968 66.771 42.4312C66.314 42.7697 65.7257 42.939 65.0063 42.939Z" fill="white"/>
<path d="M71.7285 40V33.0239H73.125L73.3408 34.0903C73.7979 33.3582 74.4601 32.9922 75.3276 32.9922C75.5096 32.9922 75.6577 33.0007 75.772 33.0176L75.7466 34.4077C75.5773 34.3823 75.4017 34.3696 75.2197 34.3696C74.6061 34.3696 74.147 34.5326 73.8423 34.8584C73.5418 35.1842 73.3916 35.637 73.3916 36.2168V40H71.7285Z" fill="white"/>
<path d="M79.7646 38.8701C80.3275 38.8701 80.7507 38.6649 81.0342 38.2544C81.3177 37.8439 81.4595 37.2557 81.4595 36.4897C81.4595 35.7153 81.3177 35.125 81.0342 34.7188C80.7507 34.3125 80.3232 34.1094 79.752 34.1094C79.1891 34.1094 78.7638 34.3146 78.4761 34.7251C78.1925 35.1313 78.0508 35.7217 78.0508 36.4961C78.0508 37.2578 78.1947 37.8439 78.4824 38.2544C78.7702 38.6649 79.1976 38.8701 79.7646 38.8701ZM79.7202 40.1333C78.6877 40.1333 77.8752 39.799 77.2827 39.1304C76.6903 38.4618 76.394 37.5815 76.394 36.4897C76.394 35.3641 76.6903 34.4775 77.2827 33.8301C77.8752 33.1784 78.7109 32.8525 79.79 32.8525C80.8311 32.8525 81.6457 33.1847 82.2339 33.8491C82.8263 34.5093 83.1226 35.3895 83.1226 36.4897C83.1226 37.6027 82.8242 38.4893 82.2275 39.1494C81.6309 39.8053 80.7951 40.1333 79.7202 40.1333Z" fill="white"/>
<path d="M87.2676 40.0952C86.7936 40.0952 86.3979 40.0402 86.0806 39.9302C85.7674 39.8159 85.522 39.6382 85.3442 39.397C85.1665 39.1558 85.0396 38.8722 84.9634 38.5464C84.8914 38.2163 84.8555 37.8101 84.8555 37.3276V34.0332H83.7129L83.7764 33.1318L84.9697 33.0239L85.5029 31.1323L86.5186 31.126V33.0239H88.2515V34.0332H86.5186V37.3594C86.5186 37.8883 86.5947 38.265 86.7471 38.4893C86.8994 38.7135 87.1808 38.8257 87.5913 38.8257C87.8325 38.8257 88.0907 38.8045 88.3657 38.7622L88.4102 39.9556C88.4017 39.9556 88.3488 39.9661 88.2515 39.9873C88.1584 40.0042 88.0674 40.019 87.9785 40.0317C87.8939 40.0487 87.7839 40.0635 87.6484 40.0762C87.513 40.0889 87.3861 40.0952 87.2676 40.0952Z" fill="white"/>
<path d="M92.7456 40.1333C91.6242 40.1333 90.7503 39.8117 90.124 39.1685C89.502 38.521 89.1909 37.6281 89.1909 36.4897C89.1909 35.381 89.485 34.4987 90.0732 33.8428C90.6615 33.1868 91.4634 32.8568 92.479 32.8525C93.4396 32.8525 94.1844 33.153 94.7134 33.7539C95.2466 34.3548 95.5132 35.1525 95.5132 36.147C95.5132 36.2189 95.5111 36.3353 95.5068 36.4961C95.5068 36.6569 95.5068 36.7754 95.5068 36.8516H90.8667C90.8836 37.5033 91.0614 38.009 91.3999 38.3687C91.7427 38.7241 92.2124 38.9019 92.8091 38.9019C93.5708 38.9019 94.3029 38.703 95.0054 38.3052L95.2402 39.4858C94.542 39.9175 93.7104 40.1333 92.7456 40.1333ZM90.8984 35.8042H93.9453C93.9453 35.2371 93.8162 34.8013 93.5581 34.4966C93.3 34.1919 92.9424 34.0396 92.4854 34.0396C92.0579 34.0396 91.6961 34.1877 91.3999 34.4839C91.1079 34.7801 90.9408 35.2202 90.8984 35.8042Z" fill="white"/>
<path d="M99.9248 40.1333C98.8584 40.1333 98.0269 39.8159 97.4302 39.1812C96.8377 38.5464 96.5415 37.6387 96.5415 36.458C96.5415 35.3154 96.8525 34.4289 97.4746 33.7983C98.1009 33.1678 98.924 32.8525 99.9438 32.8525C100.761 32.8525 101.45 33.0282 102.013 33.3794L101.62 34.5664C101.044 34.266 100.509 34.1157 100.014 34.1157C99.4508 34.1157 99.0065 34.3167 98.6807 34.7188C98.359 35.1208 98.1982 35.7069 98.1982 36.4771C98.1982 37.2557 98.3569 37.8481 98.6743 38.2544C98.9959 38.6606 99.4487 38.8638 100.033 38.8638C100.642 38.8638 101.228 38.6839 101.791 38.3242L101.95 39.5874C101.658 39.7821 101.355 39.9217 101.042 40.0063C100.729 40.091 100.356 40.1333 99.9248 40.1333Z" fill="white"/>
<path d="M103.27 40V30.4531L104.933 30.3452V32.3574C104.933 32.4548 104.927 32.7256 104.914 33.1699C104.901 33.61 104.895 33.8343 104.895 33.8428C105.449 33.1826 106.194 32.8525 107.129 32.8525C107.908 32.8525 108.511 33.0768 108.938 33.5254C109.37 33.9697 109.586 34.6553 109.586 35.582V40H107.923V35.7661C107.923 35.1948 107.832 34.7759 107.65 34.5093C107.468 34.2427 107.159 34.1094 106.723 34.1094C106.351 34.1094 106.021 34.2046 105.733 34.395C105.445 34.5812 105.229 34.8224 105.085 35.1187C104.984 35.508 104.933 36.0158 104.933 36.6421V40H103.27Z" fill="white"/>
<path d="M111.23 40V33.0239H112.569L112.753 33.9062C113.464 33.2038 114.254 32.8525 115.121 32.8525C115.934 32.8525 116.541 33.0874 116.943 33.5571C117.349 34.0226 117.552 34.6997 117.552 35.5884V40H115.883V35.7915C115.879 35.2287 115.788 34.8076 115.61 34.5283C115.432 34.249 115.113 34.1094 114.651 34.1094C114.292 34.1094 113.962 34.2025 113.661 34.3887C113.365 34.5706 113.149 34.8013 113.014 35.0806C112.933 35.4106 112.893 35.9185 112.893 36.604V40H111.23Z" fill="white"/>
<path d="M119.228 40V33.0239H120.891V40H119.228ZM119.228 32.0083V30.5864H120.897V32.0083H119.228Z" fill="white"/>
<path d="M122.63 40V30.4531L124.293 30.3452V34.6299L124.255 36.0391C124.26 36.0348 124.302 35.9925 124.382 35.9121C124.467 35.8317 124.514 35.7873 124.522 35.7788C124.755 35.5037 125.007 35.2202 125.277 34.9282C125.552 34.6362 125.897 34.2786 126.312 33.8555C126.731 33.4323 127.004 33.1551 127.131 33.0239H129.111L126.242 35.9946L129.295 40H127.283L124.985 36.8325L124.293 37.3784V40H122.63Z" fill="white"/>
<path d="M131.923 40.1333C131.276 40.1333 130.751 39.9556 130.349 39.6001C129.951 39.2404 129.752 38.7241 129.752 38.0513C129.752 37.3276 129.989 36.7923 130.463 36.4453C130.937 36.0941 131.653 35.8719 132.609 35.7788C132.74 35.7619 132.882 35.745 133.034 35.728C133.187 35.7111 133.358 35.6942 133.548 35.6772C133.739 35.6603 133.889 35.6455 133.999 35.6328V35.2646C133.999 34.8415 133.902 34.5347 133.707 34.3442C133.512 34.1496 133.216 34.0522 132.818 34.0522C132.251 34.0522 131.551 34.2109 130.717 34.5283C130.713 34.5156 130.643 34.3231 130.508 33.9507C130.372 33.5783 130.303 33.3879 130.298 33.3794C131.119 33.0282 132.008 32.8525 132.964 32.8525C133.904 32.8525 134.587 33.0578 135.015 33.4683C135.442 33.8745 135.656 34.5347 135.656 35.4487V40H134.424C134.42 39.9831 134.374 39.8413 134.285 39.5747C134.196 39.3081 134.151 39.1663 134.151 39.1494C133.804 39.488 133.464 39.7376 133.129 39.8984C132.799 40.055 132.397 40.1333 131.923 40.1333ZM132.374 38.9526C132.759 38.9526 133.093 38.8617 133.377 38.6797C133.665 38.4935 133.87 38.2692 133.993 38.0068V36.6611C133.98 36.6611 133.868 36.6696 133.656 36.6865C133.449 36.7035 133.337 36.7119 133.32 36.7119C132.647 36.7712 132.154 36.8981 131.841 37.0928C131.528 37.2874 131.371 37.6006 131.371 38.0322C131.371 38.3285 131.458 38.557 131.631 38.7178C131.805 38.8743 132.052 38.9526 132.374 38.9526Z" fill="white"/>
</svg>
