<svg width="96" height="96" viewBox="0 0 96 96" fill="none" xmlns="http://www.w3.org/2000/svg">
<rect width="88" height="88" transform="matrix(1 0 0 -1 8 96)" fill="#CBBFB1"/>
<rect width="88" height="88" transform="matrix(1 0 0 -1 0 88)" fill="white"/>
<path d="M70 29.6681V27.9647H62.6757V29.6681H65.4862V58.3318H62.6757V60.0352H70V58.3318H67.1895V29.6681H70Z" fill="#492D0C"/>
<path d="M18.316 53.1024L26.8883 33.7441C27.486 32.4092 28.5747 31.6008 30.0507 31.6008H30.3669C31.842 31.6008 32.8963 32.409 33.4934 33.7441L42.066 53.1024C42.2417 53.4889 42.3473 53.8401 42.3473 54.1916C42.3473 55.632 41.223 56.7913 39.7824 56.7913C38.5177 56.7913 37.6744 56.0536 37.1827 54.9291L35.5316 51.0648H24.7106L22.989 55.1051C22.5322 56.159 21.6189 56.7913 20.4946 56.7913C19.0887 56.7913 18 55.6671 18 54.2618C18 53.8752 18.1404 53.4889 18.316 53.1024ZM33.5289 46.2866L30.1208 38.1709L26.713 46.2866H33.5289Z" fill="#492D0C"/>
<path d="M44.9105 51.17V51.0996C44.9105 46.9892 48.0375 45.0919 52.4993 45.0919C54.3967 45.0919 55.767 45.4081 57.1021 45.8649V45.5488C57.1021 43.3352 55.7317 42.1058 53.0616 42.1058C51.5861 42.1058 50.3915 42.3165 49.3727 42.6328C49.0566 42.7382 48.8456 42.7732 48.5993 42.7732C47.3701 42.7732 46.3864 41.8246 46.3864 40.5951C46.3864 39.6464 46.9834 38.8384 47.8265 38.522C49.5129 37.8897 51.3401 37.5383 53.8345 37.5383C56.7503 37.5383 58.8585 38.3112 60.1937 39.6462C61.5989 41.0515 62.2313 43.1245 62.2313 45.6541V54.2264C62.2313 55.6671 61.0719 56.7912 59.6313 56.7912C58.0855 56.7912 57.0667 55.7021 57.0667 54.5778V54.5426C55.7669 55.983 53.9747 56.9315 51.3752 56.9315C47.8265 56.9318 44.9105 54.8944 44.9105 51.17ZM57.1719 49.9403V48.9917C56.2586 48.5702 55.064 48.289 53.7641 48.289C51.4803 48.289 50.0752 49.2026 50.0752 50.8888V50.9591C50.0752 52.3997 51.2697 53.2427 52.9911 53.2427C55.4855 53.2429 57.1719 51.8728 57.1719 49.9403Z" fill="#492D0C"/>
</svg>
