<svg width="96" height="96" viewBox="0 0 96 96" fill="none" xmlns="http://www.w3.org/2000/svg">
<rect width="88" height="88" transform="matrix(1 0 0 -1 8 96)" fill="#CBBFB1"/>
<rect width="88" height="88" transform="matrix(1 0 0 -1 0 88)" fill="white"/>
<g clip-path="url(#clip0)">
<path d="M67.809 45.5158L67.7084 45.4043L49.5862 31.6655L49.4463 31.5971C49.2716 31.5117 46.2645 30.1112 42.2503 32.3302L50.558 16.9962L47.7475 15.4736L36.4495 36.3266L15.8818 24.5172L14.2902 27.2891L34.4009 38.8362C27.5403 41.9528 27.8768 46.7772 27.8974 47.0078L27.9107 47.1573L34.1196 69.0349L34.1902 69.1737C34.3144 69.4176 37.3458 75.1115 47.4935 72.2315C54.2523 70.3134 56.3212 66.934 56.9425 64.8101C57.3484 64.7575 57.7752 64.674 58.2223 64.5471C60.3789 63.935 62.9786 62.3552 65.6732 58.8019C72.0513 50.3887 67.9852 45.7108 67.809 45.5158ZM54.0052 63.2731C53.9654 63.956 53.4138 67.2287 46.6208 69.1566C39.795 71.0937 37.504 68.4008 37.0928 67.8036L31.0862 46.6388C31.126 45.9559 31.6776 42.6832 38.4705 40.7554C45.2964 38.8182 47.5873 41.5111 47.9986 42.1083L54.0052 63.2731ZM63.1262 56.8708C60.6096 60.1895 58.3744 61.2811 56.8483 61.5831L55.5232 56.9142L61.0257 49.3169L58.4369 47.4418L54.4121 52.999L53.1174 48.4369L55.6909 44.8834L53.1021 43.0084L52.0063 44.5215L50.9719 40.8768L50.9012 40.7379C50.7943 40.5278 48.5278 36.2712 41.4097 36.9408C44.7955 33.6579 47.3686 34.2429 47.9522 34.4378L65.4939 47.7366C65.832 48.2415 67.4242 51.2012 63.1262 56.8708Z" fill="#492D0C"/>
<path d="M45.8855 45.5529L34.9692 48.651L35.8419 51.726L46.7582 48.6279L45.8855 45.5529Z" fill="#492D0C"/>
<path d="M47.7327 52.0617L36.8164 55.1598L37.6891 58.2348L48.6054 55.1367L47.7327 52.0617Z" fill="#492D0C"/>
<path d="M49.5799 58.5705L38.6636 61.6686L39.5363 64.7436L50.4526 61.6455L49.5799 58.5705Z" fill="#492D0C"/>
</g>
<defs>
<clipPath id="clip0">
<rect width="54.5324" height="54.5324" fill="white" transform="translate(10.0522 26.1716) rotate(-15.8441)"/>
</clipPath>
</defs>
</svg>
