<svg width="96" height="96" viewBox="0 0 96 96" fill="none" xmlns="http://www.w3.org/2000/svg">
<rect width="88" height="88" transform="matrix(1 0 0 -1 8 96)" fill="#CBBFB1"/>
<rect width="88" height="88" transform="matrix(1 0 0 -1 0 88)" fill="white"/>
<path d="M30.1399 33.6098L36.0475 49.8988C36.8197 52.0303 38.8608 53.4634 41.1216 53.4634H54.7996V49.8537H41.1216C40.3674 49.8537 39.687 49.3754 39.4296 48.666L38.5512 46.2439H55.2424C56.8444 46.2439 58.2664 45.1646 58.7038 43.625L61.9312 32.3012C62.0859 31.7561 61.9762 31.1714 61.6378 30.7183C61.2958 30.2653 60.763 30 60.1996 30H31.3999H29.6H26V33.6098H29.6H30.1399ZM55.2424 42.6341H37.2427L33.9703 33.6098H57.8146L55.2424 42.6341Z" fill="#492D0C"/>
<path d="M41.2998 62.4878C42.791 62.4878 43.9998 61.2756 43.9998 59.7804C43.9998 58.2852 42.791 57.0731 41.2998 57.0731C39.8087 57.0731 38.5999 58.2852 38.5999 59.7804C38.5999 61.2756 39.8087 62.4878 41.2998 62.4878Z" fill="#492D0C"/>
<path d="M52.0996 62.4878C53.5908 62.4878 54.7996 61.2756 54.7996 59.7804C54.7996 58.2852 53.5908 57.0731 52.0996 57.0731C50.6085 57.0731 49.3997 58.2852 49.3997 59.7804C49.3997 61.2756 50.6085 62.4878 52.0996 62.4878Z" fill="#492D0C"/>
</svg>
