<svg width="177" height="57" viewBox="0 0 177 57" fill="none" xmlns="http://www.w3.org/2000/svg">
<path d="M65.62 9.12H68.54V25.32H65.62V9.12Z" fill="#492D0C"/>
<path d="M71.0478 9.12H74.8678C76.1745 9.12 77.2011 9.3 77.9478 9.66C78.6945 10.0067 79.2211 10.5467 79.5278 11.28C79.8478 12 80.0078 12.96 80.0078 14.16V20.06C80.0078 21.2867 79.8478 22.28 79.5278 23.04C79.2211 23.8 78.7011 24.3733 77.9678 24.76C77.2345 25.1333 76.2411 25.32 74.9878 25.32H71.0478V9.12ZM74.9078 23.26C75.5611 23.26 76.0345 23.1467 76.3278 22.92C76.6211 22.6933 76.8078 22.38 76.8878 21.98C76.9678 21.5667 77.0078 20.96 77.0078 20.16V13.96C77.0078 13.24 76.9611 12.6933 76.8678 12.32C76.7745 11.9467 76.5745 11.6733 76.2678 11.5C75.9745 11.3133 75.5078 11.22 74.8678 11.22H73.9878V23.26H74.9078Z" fill="#492D0C"/>
<path d="M82.1806 9.12H88.9806V11.2H85.1206V15.86H88.1606V17.92H85.1206V23.3H89.0206V25.32H82.1806V9.12Z" fill="#492D0C"/>
<path d="M90.7353 9.12H92.7953L96.7353 18.36V9.12H99.1753V25.32H97.2153L93.2553 15.64V25.32H90.7353V9.12Z" fill="#492D0C"/>
<path d="M103.254 11.3H100.674V9.12H108.734V11.3H106.214V25.32H103.254V11.3Z" fill="#492D0C"/>
<path d="M110.288 9.12H113.208V25.32H110.288V9.12Z" fill="#492D0C"/>
<path d="M115.716 9.12H122.376V11.16H118.656V15.88H121.696V17.94H118.656V25.32H115.716V9.12Z" fill="#492D0C"/>
<path d="M124.058 9.12H126.978V25.32H124.058V9.12Z" fill="#492D0C"/>
<path d="M129.485 9.12H132.425V16.24L135.645 9.12H138.465L135.365 16.34L138.785 25.32H135.845L133.145 17.96L132.425 19.18V25.32H129.485V9.12Z" fill="#492D0C"/>
<path d="M142.55 9.12H145.71L148.95 25.32H146.21L145.57 21.58H142.75L142.09 25.32H139.31L142.55 9.12ZM145.25 19.7L144.15 12.9L143.05 19.7H145.25Z" fill="#492D0C"/>
<path d="M154.783 25.54C153.103 25.54 151.909 25.0733 151.203 24.14C150.509 23.1933 150.163 21.86 150.163 20.14V14.36C150.163 12.5867 150.509 11.24 151.203 10.32C151.896 9.4 153.089 8.94 154.783 8.94C156.369 8.94 157.496 9.34 158.163 10.14C158.829 10.94 159.163 12.0933 159.163 13.6V14.96H156.323V13.56C156.323 12.9867 156.296 12.54 156.243 12.22C156.189 11.8867 156.049 11.62 155.823 11.42C155.609 11.2067 155.269 11.1 154.803 11.1C154.323 11.1 153.963 11.2133 153.723 11.44C153.483 11.6533 153.323 11.9467 153.243 12.32C153.176 12.68 153.143 13.1533 153.143 13.74V20.76C153.143 21.68 153.263 22.3467 153.503 22.76C153.743 23.16 154.176 23.36 154.803 23.36C155.256 23.36 155.589 23.2533 155.803 23.04C156.029 22.8267 156.169 22.5467 156.223 22.2C156.289 21.84 156.323 21.3667 156.323 20.78V19.32H159.163V20.62C159.163 22.18 158.836 23.3933 158.183 24.26C157.529 25.1133 156.396 25.54 154.783 25.54ZM151.603 4.32H153.603L154.683 6.58L155.763 4.32H157.763L156.003 7.92H153.343L151.603 4.32Z" fill="#492D0C"/>
<path d="M161.224 9.12H163.284L167.224 18.36V9.12H169.664V25.32H167.704L163.744 15.64V25.32H161.224V9.12Z" fill="#492D0C"/>
<path d="M172.202 9.12H175.122V25.32H172.202V9.12ZM174.042 4H176.802L174.422 8H172.842L174.042 4Z" fill="#492D0C"/>
<path d="M65 49.42L69.34 37.16H65.22V35.12H72.32V36.64L67.8 49.3H72.34V51.32H65V49.42Z" fill="#87B757"/>
<path d="M74.0361 35.12H76.0961L80.0361 44.36V35.12H82.4761V51.32H80.5161L76.5561 41.64V51.32H74.0361V35.12Z" fill="#87B757"/>
<path d="M87.3545 35.12H90.5145L93.7545 51.32H91.0145L90.3745 47.58H87.5545L86.8945 51.32H84.1145L87.3545 35.12ZM90.0545 45.7L88.9545 38.9L87.8545 45.7H90.0545ZM89.3345 30H92.0945L89.7145 34H88.1345L89.3345 30Z" fill="#87B757"/>
<path d="M95.6238 35.12H98.6838L100.984 46.34L103.364 35.12H106.344L106.644 51.32H104.444L104.204 40.06L101.904 51.32H100.124L97.7837 40.02L97.5638 51.32H95.3438L95.6238 35.12Z" fill="#87B757"/>
<path d="M109.036 35.12H111.976V42.24L115.196 35.12H118.016L114.916 42.34L118.336 51.32H115.396L112.696 43.96L111.976 45.18V51.32H109.036V35.12Z" fill="#87B757"/>
<path d="M121.941 45.14L118.661 35.12H121.421L123.421 41.54L125.301 35.12H128.001L124.761 45.14V51.32H121.941V45.14Z" fill="#87B757"/>
<path d="M128.893 48.58H131.533V51.32H128.893V48.58Z" fill="#87B757"/>
<path d="M137.869 51.54C136.189 51.54 134.995 51.0733 134.289 50.14C133.595 49.1933 133.249 47.86 133.249 46.14V40.36C133.249 38.5867 133.595 37.24 134.289 36.32C134.982 35.4 136.175 34.94 137.869 34.94C139.455 34.94 140.582 35.34 141.249 36.14C141.915 36.94 142.249 38.0933 142.249 39.6V40.96H139.409V39.56C139.409 38.9867 139.382 38.54 139.329 38.22C139.275 37.8867 139.135 37.62 138.909 37.42C138.695 37.2067 138.355 37.1 137.889 37.1C137.409 37.1 137.049 37.2133 136.809 37.44C136.569 37.6533 136.409 37.9467 136.329 38.32C136.262 38.68 136.229 39.1533 136.229 39.74V46.76C136.229 47.68 136.349 48.3467 136.589 48.76C136.829 49.16 137.262 49.36 137.889 49.36C138.342 49.36 138.675 49.2533 138.889 49.04C139.115 48.8267 139.255 48.5467 139.309 48.2C139.375 47.84 139.409 47.3667 139.409 46.78V45.32H142.249V46.62C142.249 48.18 141.922 49.3933 141.269 50.26C140.615 51.1133 139.482 51.54 137.869 51.54Z" fill="#87B757"/>
<path d="M143.77 49.42L148.11 37.16H143.99V35.12H151.09V36.64L146.57 49.3H151.11V51.32H143.77V49.42Z" fill="#87B757"/>
<g clip-path="url(#clip0)">
<path d="M48.8049 28.6107L48.7212 28.5179L33.6342 17.0801L33.5177 17.0232C33.3723 16.9521 30.8688 15.7861 27.527 17.6335L34.4433 4.86775L32.1035 3.60014L22.6977 20.9606L5.57484 11.1291L4.24974 13.4368L20.9922 23.0499C15.2807 25.6444 15.5608 29.6609 15.5779 29.8528L15.589 29.9773L20.758 48.1907L20.8168 48.3063C20.9202 48.5093 23.4439 53.2496 31.892 50.852C37.5188 49.2551 39.2412 46.4417 39.7584 44.6735C40.0963 44.6297 40.4517 44.5602 40.8239 44.4545C42.6192 43.945 44.7836 42.6298 47.0269 39.6716C52.3367 32.6675 48.9517 28.7731 48.8049 28.6107ZM37.3131 43.3939C37.28 43.9624 36.8207 46.687 31.1655 48.292C25.4829 49.9047 23.5756 47.6628 23.2333 47.1656L18.2327 29.5457C18.2658 28.9771 18.725 26.2526 24.3802 24.6476C30.0629 23.0348 31.9701 25.2768 32.3125 25.7739L37.3131 43.3939ZM44.9065 38.0639C42.8113 40.8268 40.9505 41.7356 39.68 41.987L38.5769 38.1001L43.1577 31.7752L41.0025 30.2142L37.6518 34.8406L36.5739 31.0426L38.7165 28.0843L36.5613 26.5233L35.6489 27.783L34.7878 24.7486L34.729 24.6331C34.64 24.4581 32.753 20.9145 26.8272 21.4719C29.6458 18.7388 31.788 19.2258 32.2738 19.3881L46.8776 30.4596C47.159 30.8799 48.4846 33.3439 44.9065 38.0639Z" fill="#492D0C"/>
<path d="M30.5533 28.6416L21.4653 31.2208L22.1919 33.7808L31.2798 31.2016L30.5533 28.6416Z" fill="#492D0C"/>
<path d="M32.0911 34.0603L23.0032 36.6395L23.7297 39.1995L32.8177 36.6203L32.0911 34.0603Z" fill="#492D0C"/>
<path d="M33.629 39.479L24.541 42.0582L25.2675 44.6182L34.3555 42.039L33.629 39.479Z" fill="#492D0C"/>
</g>
<defs>
<clipPath id="clip0">
<rect width="45.399" height="45.399" fill="white" transform="translate(0.721542 12.5064) rotate(-15.8441)"/>
</clipPath>
</defs>
</svg>
